<svg xmlns="http://www.w3.org/2000/svg" width="36.111" height="36.111" viewBox="0 0 36.111 36.111">
  <path id="패스_42714" data-name="패스 42714" d="M61.056,116.46a18.058,18.058,0,1,1-12.766,5.289,18.008,18.008,0,0,1,12.766-5.289Zm-2.467,27.388a1.181,1.181,0,0,1-1.671-1.671l7.662-7.662-7.662-7.662a1.181,1.181,0,1,1,1.671-1.671l8.5,8.5a1.182,1.182,0,0,1,0,1.671l-8.5,8.5ZM72.151,123.42a15.69,15.69,0,1,0,4.6,11.1,15.653,15.653,0,0,0-4.6-11.1Z" transform="translate(-43 -116.46)" fill="#00aeea"/>
</svg>
